<svg width="75" height="50" viewBox="0 0 75 50" fill="none" xmlns="http://www.w3.org/2000/svg">
<path d="M33.1029 47.7508C32.1027 48.5879 30.7464 49.0581 29.3322 49.0581C27.918 49.0581 26.5617 48.5879 25.5615 47.7508L1.56153 27.6589C0.561681 26.8216 -2.22521e-06 25.6861 -2.22521e-06 24.5022C-2.22521e-06 23.3182 0.561681 22.1828 1.56153 21.3455L25.5615 1.25351C26.5674 0.440193 27.9146 -0.00984214 29.313 0.000330741C30.7114 0.0105036 32.049 0.48007 33.0379 1.3079C34.0267 2.13572 34.5876 3.25557 34.5998 4.42625C34.6119 5.59693 34.0744 6.72477 33.1029 7.56686L18.6655 20.0373H69.3322C70.7467 20.0373 72.1032 20.5077 73.1034 21.345C74.1036 22.1824 74.6655 23.318 74.6655 24.5022C74.6655 25.6863 74.1036 26.822 73.1034 27.6593C72.1032 28.4967 70.7467 28.9671 69.3322 28.9671H18.6655L33.1029 41.4375C34.1027 42.2748 34.6644 43.4102 34.6644 44.5942C34.6644 45.7781 34.1027 46.9136 33.1029 47.7508Z" fill="black"/>
</svg>
