<svg width="30" height="24" viewBox="0 0 30 24" fill="none" xmlns="http://www.w3.org/2000/svg">
<path d="M10.9909 4.90426e-05C8.41364 -0.0119091 5.90455 2.16447 7.05 4.86701H2.72727C2.00396 4.86701 1.31026 5.11898 0.7988 5.5675C0.287337 6.01601 0 6.62433 0 7.25863V9.65025C0 9.9674 0.143668 10.2716 0.3994 10.4958C0.655131 10.7201 1.00198 10.8461 1.36364 10.8461H13.6364V7.25863H16.3636V10.8461H28.6364C28.998 10.8461 29.3449 10.7201 29.6006 10.4958C29.8563 10.2716 30 9.9674 30 9.65025V7.25863C30 6.62433 29.7127 6.01601 29.2012 5.5675C28.6897 5.11898 27.996 4.86701 27.2727 4.86701H22.95C24.5455 0.956699 18.5455 -1.80563 15.7773 1.56656L15 2.47538L14.2227 1.54265C13.3636 0.478374 12.1773 0.0120072 10.9909 4.90426e-05ZM10.9091 2.47538C12.1227 2.47538 12.7364 3.76686 11.8773 4.52022C11.0182 5.27358 9.54545 4.73547 9.54545 3.67119C9.54545 3.35404 9.68912 3.04988 9.94485 2.82563C10.2006 2.60137 10.5474 2.47538 10.9091 2.47538ZM19.0909 2.47538C20.3045 2.47538 20.9182 3.76686 20.0591 4.52022C19.2 5.27358 17.7273 4.73547 17.7273 3.67119C17.7273 3.35404 17.8709 3.04988 18.1267 2.82563C18.3824 2.60137 18.7293 2.47538 19.0909 2.47538ZM1.36364 12.0419V21.6084C1.36364 22.2427 1.65097 22.851 2.16244 23.2995C2.6739 23.748 3.36759 24 4.09091 24H25.9091C26.6324 24 27.3261 23.748 27.8376 23.2995C28.349 22.851 28.6364 22.2427 28.6364 21.6084V12.0419H16.3636V21.6084H13.6364V12.0419H1.36364Z" fill="white"/>
</svg>
