<svg width="32" height="20" viewBox="0 0 32 20" fill="none" xmlns="http://www.w3.org/2000/svg">
<path d="M2.66633 12.1739C3.03665 12.1739 3.29588 12.029 3.44401 11.7391C3.59214 11.4493 3.59214 11.1594 3.44401 10.8696C3.29588 10.5797 3.03665 10.4348 2.66633 10.4348C2.296 10.4348 2.03678 10.5797 1.88865 10.8696C1.74052 11.1594 1.74052 11.4493 1.88865 11.7391C2.03678 12.029 2.296 12.1739 2.66633 12.1739ZM23.1221 11.3859C23.0295 11.2681 22.8513 11.0417 22.5874 10.7065C22.3235 10.3714 22.1314 10.1268 22.0111 9.97283C21.8907 9.81884 21.7148 9.59692 21.4834 9.30707C21.2519 9.01721 21.0552 8.77717 20.8932 8.58696C20.7312 8.39674 20.5437 8.18388 20.3307 7.94837C20.1178 7.71286 19.9095 7.49094 19.7058 7.28261L17.9699 9.18478C17.2015 10.0362 16.2364 10.4529 15.0745 10.4348C13.9126 10.4167 12.9613 9.97283 12.2207 9.10326C11.693 8.47826 11.4314 7.76268 11.436 6.95652C11.4407 6.15036 11.7115 5.43931 12.2484 4.82337L14.7065 2.02446C14.5028 1.92482 14.2667 1.85009 13.9982 1.80027C13.7297 1.75045 13.5099 1.72328 13.3386 1.71875C13.1673 1.71422 12.9058 1.71649 12.554 1.72554C12.2021 1.7346 11.9753 1.73913 11.8735 1.73913C11.0217 1.73913 10.2904 2.03804 9.67932 2.63587L7.48516 4.78261H5.33265V12.1739C5.37894 12.1739 5.47615 12.1716 5.62428 12.1671C5.77241 12.1626 5.87425 12.1626 5.9298 12.1671C5.98535 12.1716 6.07561 12.1807 6.2006 12.1943C6.32558 12.2079 6.42048 12.2283 6.48528 12.2554C6.55009 12.2826 6.6311 12.3211 6.72831 12.3709C6.82552 12.4207 6.91116 12.4819 6.98522 12.5543L11.1097 16.5217C12.1744 17.5272 13.2252 18.0299 14.2621 18.0299C14.9842 18.0299 15.5628 17.817 15.998 17.3913C16.5257 17.5725 17.0464 17.5362 17.5603 17.2826C18.0741 17.029 18.4097 16.644 18.5671 16.1277C19.2522 16.1821 19.8401 15.9828 20.3307 15.5299C20.5159 15.3668 20.6825 15.1608 20.8307 14.9117C20.9788 14.6626 21.0436 14.4339 21.0251 14.2255C21.1177 14.3161 21.3167 14.3614 21.6222 14.3614C22.0203 14.3614 22.3768 14.2663 22.6916 14.0761C23.0063 13.8859 23.2355 13.6458 23.379 13.356C23.5225 13.0661 23.578 12.7423 23.5456 12.3845C23.5132 12.0267 23.372 11.6938 23.1221 11.3859ZM25.3301 12.1739H26.6633V5.21739H25.3718L23.1915 2.77174C22.5805 2.08333 21.7981 1.73913 20.8446 1.73913H18.5254C17.7014 1.73913 17.0256 2.04257 16.4979 2.64946L13.5955 5.95109C13.3363 6.25 13.2067 6.58967 13.2067 6.97011C13.2067 7.35054 13.3316 7.69022 13.5816 7.98913C13.9797 8.45109 14.4889 8.68659 15.1092 8.69565C15.7295 8.70471 16.2433 8.48279 16.6507 8.02989L19.3309 5.06793C19.5623 4.8596 19.81 4.76223 20.0738 4.77582C20.3377 4.7894 20.5553 4.91168 20.7265 5.14266C20.8978 5.37364 20.9371 5.62953 20.8446 5.91033C20.9927 6.08243 21.2519 6.36775 21.6222 6.7663C21.9926 7.16485 22.2703 7.47283 22.4555 7.69022C22.724 8.0163 23.1059 8.49411 23.6012 9.12364C24.0965 9.75317 24.395 10.1359 24.4969 10.2717C24.9783 10.8696 25.256 11.5036 25.3301 12.1739ZM29.3296 12.1739C29.6999 12.1739 29.9591 12.029 30.1073 11.7391C30.2554 11.4493 30.2554 11.1594 30.1073 10.8696C29.9591 10.5797 29.6999 10.4348 29.3296 10.4348C28.9593 10.4348 28.7 10.5797 28.5519 10.8696C28.4038 11.1594 28.4038 11.4493 28.5519 11.7391C28.7 12.029 28.9593 12.1739 29.3296 12.1739ZM31.9959 4.34783V13.0435C31.9959 13.279 31.908 13.4828 31.7321 13.6549C31.5562 13.827 31.3479 13.913 31.1071 13.913H25.0801C24.8302 14.5018 24.4506 14.9841 23.9414 15.3601C23.4322 15.736 22.8536 15.9692 22.2055 16.0598C21.9 16.4946 21.5273 16.8637 21.0876 17.1671C20.6478 17.4706 20.1734 17.6766 19.6642 17.7853C19.2753 18.2654 18.7916 18.6345 18.213 18.8927C17.6343 19.1508 17.0395 19.2618 16.4285 19.2255C15.873 19.5335 15.2897 19.7124 14.6787 19.7622C14.0677 19.812 13.4774 19.7486 12.9081 19.572C12.3387 19.3954 11.7971 19.1531 11.2833 18.8451C10.7695 18.5371 10.2904 18.1703 9.84597 17.7446L5.86036 13.913H0.888776C0.648066 13.913 0.439759 13.827 0.263855 13.6549C0.0879518 13.4828 0 13.279 0 13.0435V3.91304C0 3.67754 0.0879518 3.47373 0.263855 3.30163C0.439759 3.12953 0.648066 3.04348 0.888776 3.04348H6.73525C6.86487 2.91667 7.08243 2.69928 7.38795 2.3913C7.69346 2.08333 7.91334 1.86594 8.04759 1.73913C8.18183 1.61232 8.38551 1.43116 8.65862 1.19565C8.93173 0.960145 9.1655 0.790308 9.35992 0.686141C9.55434 0.581975 9.79042 0.466485 10.0682 0.339674C10.3459 0.212862 10.6329 0.124547 10.9292 0.0747283C11.2254 0.0249094 11.5402 0 11.8735 0H13.4983C14.4148 0 15.2527 0.253623 16.0118 0.76087C16.771 0.253623 17.6089 0 18.5254 0H20.8446C21.1686 0 21.4787 0.0271739 21.775 0.0815217C22.0713 0.13587 22.3328 0.20154 22.5596 0.278533C22.7864 0.355525 23.0248 0.475543 23.2748 0.638587C23.5248 0.80163 23.7308 0.942029 23.8928 1.05978C24.0548 1.17754 24.2539 1.35643 24.4899 1.59647C24.726 1.8365 24.9065 2.02672 25.0315 2.16712C25.1565 2.30752 25.3463 2.52491 25.6009 2.81929C25.8555 3.11368 26.0476 3.33333 26.1772 3.47826H31.1071C31.3479 3.47826 31.5562 3.56431 31.7321 3.73641C31.908 3.90851 31.9959 4.11232 31.9959 4.34783Z" fill="white"/>
</svg>
