<svg width="30" height="30" viewBox="0 0 30 30" fill="none" xmlns="http://www.w3.org/2000/svg">
<path d="M20.0875 6.16248C19.0823 5.1552 17.8007 4.46899 16.4051 4.1908C15.0095 3.91261 13.5627 4.05496 12.2481 4.59982C10.9334 5.14468 9.81015 6.06752 9.02052 7.2514C8.23089 8.43528 7.81046 9.82692 7.81251 11.25C7.81251 11.4986 7.91128 11.7371 8.08709 11.9129C8.26291 12.0887 8.50137 12.1875 8.75001 12.1875C8.99865 12.1875 9.2371 12.0887 9.41292 11.9129C9.58874 11.7371 9.68751 11.4986 9.68751 11.25C9.68504 10.1957 9.99555 9.16448 10.5797 8.28687C11.1639 7.40927 11.9954 6.72481 12.9689 6.32023C13.9425 5.91564 15.0142 5.80914 16.0483 6.01421C17.0824 6.21927 18.0324 6.72668 18.7778 7.47215C19.5233 8.21762 20.0307 9.16759 20.2358 10.2017C20.4408 11.2358 20.3343 12.3075 19.9298 13.2811C19.5252 14.2546 18.8407 15.0861 17.9631 15.6703C17.0855 16.2544 16.0543 16.565 15 16.5625C14.7524 16.5657 14.5158 16.6655 14.3407 16.8406C14.1656 17.0158 14.0657 17.2523 14.0625 17.5V20C14.0625 20.2486 14.1613 20.4871 14.3371 20.6629C14.5129 20.8387 14.7514 20.9375 15 20.9375C15.2486 20.9375 15.4871 20.8387 15.6629 20.6629C15.8387 20.4871 15.9375 20.2486 15.9375 20V18.375C17.2663 18.197 18.519 17.6515 19.5545 16.7999C20.5901 15.9484 21.3673 14.8247 21.7986 13.5553C22.23 12.2859 22.2983 10.9213 21.996 9.61518C21.6937 8.30904 21.0327 7.11325 20.0875 6.16248Z" fill="white"/>
<path d="M15 25.9375C15.8629 25.9375 16.5625 25.2379 16.5625 24.375C16.5625 23.5121 15.8629 22.8125 15 22.8125C14.1371 22.8125 13.4375 23.5121 13.4375 24.375C13.4375 25.2379 14.1371 25.9375 15 25.9375Z" fill="white"/>
</svg>
