<svg width="30" height="30" viewBox="0 0 30 30" fill="none" xmlns="http://www.w3.org/2000/svg">
<path d="M15.0034 20.25C13.572 20.25 12.1991 19.6969 11.187 18.7123C10.1748 17.7277 9.60613 16.3924 9.60613 15C9.60613 13.6076 10.1748 12.2723 11.187 11.2877C12.1991 10.3031 13.572 9.75 15.0034 9.75C16.4349 9.75 17.8077 10.3031 18.8199 11.2877C19.832 12.2723 20.4007 13.6076 20.4007 15C20.4007 16.3924 19.832 17.7277 18.8199 18.7123C17.8077 19.6969 16.4349 20.25 15.0034 20.25ZM26.4611 16.455C26.5227 15.975 26.569 15.495 26.569 15C26.569 14.505 26.5227 14.01 26.4611 13.5L29.7148 11.055C30.0078 10.83 30.0849 10.425 29.8999 10.095L26.8157 4.905C26.6307 4.575 26.2143 4.44 25.8751 4.575L22.0353 6.075C21.2334 5.49 20.4007 4.98 19.4292 4.605L18.8586 0.630003C18.8273 0.453328 18.7327 0.293143 18.5915 0.17783C18.4504 0.0625168 18.2719 -0.000479662 18.0876 2.7502e-06H11.9192C11.5337 2.7502e-06 11.2099 0.270003 11.1482 0.630003L10.5776 4.605C9.60613 4.98 8.7734 5.49 7.97152 6.075L4.13174 4.575C3.79249 4.44 3.37612 4.575 3.19107 4.905L0.106915 10.095C-0.0935556 10.425 -0.00103058 10.83 0.291965 11.055L3.54575 13.5C3.48407 14.01 3.43781 14.505 3.43781 15C3.43781 15.495 3.48407 15.975 3.54575 16.455L0.291965 18.945C-0.00103058 19.17 -0.0935556 19.575 0.106915 19.905L3.19107 25.095C3.37612 25.425 3.79249 25.545 4.13174 25.425L7.97152 23.91C8.7734 24.51 9.60613 25.02 10.5776 25.395L11.1482 29.37C11.2099 29.73 11.5337 30 11.9192 30H18.0876C18.4731 30 18.7969 29.73 18.8586 29.37L19.4292 25.395C20.4007 25.005 21.2334 24.51 22.0353 23.91L25.8751 25.425C26.2143 25.545 26.6307 25.425 26.8157 25.095L29.8999 19.905C30.0849 19.575 30.0078 19.17 29.7148 18.945L26.4611 16.455Z" fill="white"/>
<path d="M11.9189 0.5H18.0889C18.1589 0.499817 18.225 0.524259 18.2754 0.56543C18.3239 0.605208 18.3534 0.657832 18.3643 0.712891L18.9346 4.67578L18.9756 4.96582L19.249 5.07129C20.1664 5.42538 20.9602 5.90947 21.7402 6.47852L21.9619 6.64062L22.2168 6.54102L26.0566 5.04102L26.0596 5.04004C26.1746 4.99429 26.3219 5.04601 26.3799 5.14941L26.3857 5.16016L29.4648 10.3428C29.5317 10.465 29.4956 10.5918 29.4092 10.6582L26.1611 13.1006L25.9297 13.2734L25.9648 13.5596C26.0257 14.0625 26.0693 14.5348 26.0693 15C26.0693 15.4645 26.0253 15.9211 25.9648 16.3916L25.9287 16.6768L26.1572 16.8525L29.4102 19.3408V19.3418C29.4962 19.4079 29.5306 19.5335 29.4648 19.6553L26.3857 24.8398L26.3799 24.8506C26.3309 24.9379 26.1885 25.0025 26.0469 24.9551L22.2188 23.4453L21.959 23.3428L21.7354 23.5098C20.9627 24.0879 20.1678 24.5594 19.2432 24.9307L18.9756 25.0381L18.9346 25.3242L18.3643 29.291C18.343 29.3982 18.2381 29.4999 18.0879 29.5H11.9189C11.7686 29.4999 11.6628 29.3982 11.6416 29.291L11.0723 25.3242L11.0312 25.0342L10.7578 24.9287L10.4189 24.79C9.64253 24.4525 8.95118 24.0183 8.27148 23.5098L8.04785 23.3428L7.78809 23.4453L3.95898 24.9551C3.81766 25.002 3.67582 24.9377 3.62695 24.8506L3.62109 24.8398L0.537109 19.6494L0.53418 19.6455L0.515625 19.6064C0.480462 19.5144 0.506756 19.4092 0.595703 19.3408L3.84961 16.8525L4.07812 16.6768L4.04199 16.3916C3.98153 15.9211 3.9375 15.4645 3.9375 15C3.9375 14.5348 3.98117 14.0625 4.04199 13.5596L4.07715 13.2734L3.8457 13.1006L0.59668 10.6582C0.494826 10.58 0.473347 10.4546 0.53418 10.3545L0.537109 10.3506L3.62109 5.16016L3.62695 5.14941C3.68494 5.04601 3.83229 4.99429 3.94727 5.04004L3.9502 5.04102L7.79004 6.54102L8.04492 6.64062L8.2666 6.47852C9.04666 5.90947 9.84048 5.42538 10.7578 5.07129L11.0312 4.96582L11.0723 4.67578L11.6416 0.708008C11.6633 0.601129 11.7691 0.500135 11.9189 0.5ZM15.0029 9.25C13.4434 9.25012 11.9447 9.85305 10.8379 10.9297C9.73074 12.0068 9.10645 13.4707 9.10645 15C9.10645 16.5293 9.73074 17.9932 10.8379 19.0703C11.9447 20.1469 13.4434 20.7499 15.0029 20.75C16.5626 20.75 18.062 20.1471 19.1689 19.0703C20.2761 17.9932 20.9004 16.5293 20.9004 15C20.9004 13.4707 20.2761 12.0068 19.1689 10.9297C18.062 9.85294 16.5626 9.25 15.0029 9.25Z" stroke="black" stroke-opacity="0.6"/>
</svg>
