<svg width="32" height="39" viewBox="0 0 32 39" fill="none" xmlns="http://www.w3.org/2000/svg">
<path d="M1 1H24.5714C26.2764 1 27.9115 1.58199 29.1171 2.61794C30.3227 3.65389 31 5.05895 31 6.524V32.3027C31 32.791 30.7742 33.2594 30.3724 33.6047C29.9705 33.95 29.4255 34.144 28.8571 34.144H22.4286" stroke="white" stroke-width="2" stroke-linecap="round" stroke-linejoin="round"/>
<path d="M16 19.4133V23.096M1 1L17.26 3.79514C18.7171 4.04541 20.0284 4.72171 20.9707 5.70902C21.913 6.69632 22.4282 7.93364 22.4286 9.21051V35.5803C22.4284 35.8526 22.3579 36.1215 22.2222 36.3676C22.0865 36.6136 21.889 36.8308 21.6439 37.0034C21.3987 37.176 21.1121 37.2997 20.8046 37.3657C20.4971 37.4316 20.1765 37.4381 19.8657 37.3848L4.44571 34.7369C3.47381 34.57 2.59927 34.1188 1.97101 33.4601C1.34275 32.8013 0.999608 31.9759 1 31.1242V1Z" stroke="white" stroke-width="2" stroke-linecap="round" stroke-linejoin="round"/>
</svg>
