<svg width="80" height="80" viewBox="0 0 80 80" fill="none" xmlns="http://www.w3.org/2000/svg">
    <path d="M25.3523 31.525C21.5147 27.9067 19.596 23.5571 19.596 18.4762C19.596 13.3952 21.5147 9.04564 25.3523 5.42738C29.1898 1.80913 33.803 0 39.1919 0C44.5808 0 49.194 1.80913 53.0316 5.42738C56.8691 9.04564 58.7879 13.3952 58.7879 18.4762C58.7879 23.5571 56.8691 27.9067 53.0316 31.525C49.194 35.1433 44.5808 36.9524 39.1919 36.9524C33.803 36.9524 29.1898 35.1433 25.3523 31.525ZM2.42424 68.5714L0 66.8571V64.5714V60.9714C0 58.354 0.715254 55.949 2.14576 53.7565C3.57626 51.564 5.4738 49.8888 7.83838 48.731C12.9007 46.3444 18.0446 44.5553 23.2702 43.3636C28.4958 42.1719 33.803 41.5745 39.1919 41.5714C44.5808 41.5684 49.888 42.1657 55.1136 43.3636C60.3392 44.5615 65.4832 46.3506 70.5455 48.731C72.9133 49.8857 74.8125 51.5609 76.243 53.7565C77.6735 55.9521 80.0033 61.9571 80 64.5714L78.1818 66.2857L73.9394 69.7143L66.0606 74.2857L57.5758 77.7143L47.8788 79.4286L43.0303 80H38.1818H33.3333L28.4848 79.4286L19.3939 77.1429L10.303 73.7143L2.42424 68.5714Z" fill="white"/>
</svg>
